<svg width="510" height="130" viewBox="0 0 510 130" fill="none" xmlns="http://www.w3.org/2000/svg">
<rect y="103" width="509" height="13" rx="6.5" fill="#D9D9D9"/>
<rect y="103" width="509" height="13" rx="6.5" fill="white"/>
<path d="M467.688 35.3125C473.562 28.6875 480.167 25.375 487.5 25.375C502.458 25.375 509.938 33.5208 509.938 49.8125V93.1875H498.125V50.3125C498.125 44.8958 497.146 41 495.188 38.625C493.271 36.25 490.104 35.0625 485.688 35.0625C479.688 35.0625 473.688 38.6042 467.688 45.6875V93.1875H455.875V26.875H467.688V35.3125Z" fill="black"/>
<path d="M426.625 84.75C420.75 91.4167 414.146 94.75 406.812 94.75C391.854 94.75 384.375 86.5833 384.375 70.25V26.875H396.188V69.75C396.188 75.1667 397.146 79.0625 399.062 81.4375C400.979 83.8125 404.146 85 408.562 85C415.146 85 421.167 81.4583 426.625 74.375V26.875H438.375V93.1875H426.625V84.75Z" fill="black"/>
<path d="M362.812 36.125V93.1875H351.062V36.125H341.312V26.875H351.062V21C351.062 7 357.25 0 369.625 0C373.417 0 376.354 0.25 378.438 0.75V11C376.104 10.5833 373.729 10.375 371.312 10.375C368.438 10.375 366.292 11.1875 364.875 12.8125C363.5 14.3958 362.812 17.1667 362.812 21.125V26.875H375.375V36.125H362.812Z" fill="black"/>
<path d="M305.188 37.625C303.521 37.125 301.125 36.875 298 36.875C292 36.875 286.854 40.0208 282.562 46.3125V93.1875H270.75V26.875H282.562V36.125C287.521 28.9583 293.271 25.375 299.812 25.375C301.479 25.375 303.271 25.5417 305.188 25.875V37.625Z" fill="black"/>
<path d="M227.688 94.75C217.938 94.75 210.104 91.7083 204.188 85.625C198.271 79.5 195.312 70.9792 195.312 60.0625C195.312 49.2292 198.167 40.75 203.875 34.625C209.625 28.4583 217.125 25.375 226.375 25.375C235.833 25.375 243.375 28.3958 249 34.4375C254.667 40.4792 257.5 49.0208 257.5 60.0625V62.875H207.562C208.062 70.5417 210.167 76.2292 213.875 79.9375C217.625 83.6458 222.229 85.5 227.688 85.5C231.812 85.5 235.521 84.4583 238.812 82.375C242.146 80.25 243.896 77.25 244.062 73.375H256.25C255.333 80.2083 252.229 85.4792 246.938 89.1875C241.688 92.8958 235.271 94.75 227.688 94.75ZM245.062 53.625C244.104 47.25 241.958 42.4792 238.625 39.3125C235.292 36.1458 231.208 34.5625 226.375 34.5625C221.667 34.5625 217.625 36.1458 214.25 39.3125C210.875 42.4375 208.729 47.2083 207.812 53.625H245.062Z" fill="black"/>
<path d="M170.25 74.125V42.625C165.167 37.25 159.354 34.5625 152.812 34.5625C147.771 34.5625 143.729 36.75 140.688 41.125C137.688 45.4583 136.188 51.9375 136.188 60.5625C136.188 68.7292 137.604 74.9375 140.438 79.1875C143.312 83.3958 147.271 85.5 152.312 85.5C158.896 85.5 164.875 81.7083 170.25 74.125ZM170.25 85.25C165 91.5833 158.688 94.75 151.312 94.75C142.646 94.75 135.938 91.6667 131.188 85.5C126.438 79.3333 124.062 71.0208 124.062 60.5625C124.062 49.7292 126.708 41.1667 132 34.875C137.333 28.5417 144.021 25.375 152.062 25.375C159.229 25.375 165.292 27.5833 170.25 32V1.5625H182V93.1875H170.25V85.25Z" fill="black"/>
<path d="M110.812 93.1875H99V26.875H110.812V93.1875ZM110.812 14.3125H99V1.5625H110.812V14.3125Z" fill="black"/>
<path d="M81.5625 93.1875H69.75V1.5625H81.5625V93.1875Z" fill="black"/>
<path d="M29.4375 94.75C11.3125 94.75 1.83333 87.625 1 73.375H12.8125C12.8958 81.4583 18.3958 85.5 29.3125 85.5C34.1875 85.5 37.8958 84.5 40.4375 82.5C43.0208 80.4583 44.3125 77.9167 44.3125 74.875C44.3125 71.875 43.0625 69.7708 40.5625 68.5625C38.0625 67.3125 32.8958 65.7083 25.0625 63.75C17.2708 61.7917 11.5625 59.6042 7.9375 57.1875C4.35417 54.7708 2.5625 50.5208 2.5625 44.4375C2.5625 38.9375 4.79167 34.3958 9.25 30.8125C13.75 27.1875 19.75 25.375 27.25 25.375C44.625 25.375 53.5 31.5625 53.875 43.9375H42.125C41.7083 37.6875 37.0208 34.5625 28.0625 34.5625C24.1042 34.5625 20.8125 35.3125 18.1875 36.8125C15.6042 38.3125 14.3125 40.5 14.3125 43.375C14.3125 45.9583 15.3125 47.8333 17.3125 49C19.3125 50.125 24.3125 51.6667 32.3125 53.625C40.3542 55.5417 46.3125 57.7917 50.1875 60.375C54.1042 62.9583 56.0625 67.4167 56.0625 73.75C56.0625 79.7917 53.6458 84.8125 48.8125 88.8125C44.0208 92.7708 37.5625 94.75 29.4375 94.75Z" fill="black"/>
<path d="M467.688 35.3125C473.562 28.6875 480.167 25.375 487.5 25.375C502.458 25.375 509.938 33.5208 509.938 49.8125V93.1875H498.125V50.3125C498.125 44.8958 497.146 41 495.188 38.625C493.271 36.25 490.104 35.0625 485.688 35.0625C479.688 35.0625 473.688 38.6042 467.688 45.6875V93.1875H455.875V26.875H467.688V35.3125Z" fill="#F8F8F8"/>
<path d="M426.625 84.75C420.75 91.4167 414.146 94.75 406.812 94.75C391.854 94.75 384.375 86.5833 384.375 70.25V26.875H396.188V69.75C396.188 75.1667 397.146 79.0625 399.062 81.4375C400.979 83.8125 404.146 85 408.562 85C415.146 85 421.167 81.4583 426.625 74.375V26.875H438.375V93.1875H426.625V84.75Z" fill="#F8F8F8"/>
<path d="M362.812 36.125V93.1875H351.062V36.125H341.312V26.875H351.062V21C351.062 7 357.25 0 369.625 0C373.417 0 376.354 0.25 378.438 0.75V11C376.104 10.5833 373.729 10.375 371.312 10.375C368.438 10.375 366.292 11.1875 364.875 12.8125C363.5 14.3958 362.812 17.1667 362.812 21.125V26.875H375.375V36.125H362.812Z" fill="#F8F8F8"/>
<path d="M305.188 37.625C303.521 37.125 301.125 36.875 298 36.875C292 36.875 286.854 40.0208 282.562 46.3125V93.1875H270.75V26.875H282.562V36.125C287.521 28.9583 293.271 25.375 299.812 25.375C301.479 25.375 303.271 25.5417 305.188 25.875V37.625Z" fill="#F8F8F8"/>
<path d="M227.688 94.75C217.938 94.75 210.104 91.7083 204.188 85.625C198.271 79.5 195.312 70.9792 195.312 60.0625C195.312 49.2292 198.167 40.75 203.875 34.625C209.625 28.4583 217.125 25.375 226.375 25.375C235.833 25.375 243.375 28.3958 249 34.4375C254.667 40.4792 257.5 49.0208 257.5 60.0625V62.875H207.562C208.062 70.5417 210.167 76.2292 213.875 79.9375C217.625 83.6458 222.229 85.5 227.688 85.5C231.812 85.5 235.521 84.4583 238.812 82.375C242.146 80.25 243.896 77.25 244.062 73.375H256.25C255.333 80.2083 252.229 85.4792 246.938 89.1875C241.688 92.8958 235.271 94.75 227.688 94.75ZM245.062 53.625C244.104 47.25 241.958 42.4792 238.625 39.3125C235.292 36.1458 231.208 34.5625 226.375 34.5625C221.667 34.5625 217.625 36.1458 214.25 39.3125C210.875 42.4375 208.729 47.2083 207.812 53.625H245.062Z" fill="#F8F8F8"/>
<path d="M170.25 74.125V42.625C165.167 37.25 159.354 34.5625 152.812 34.5625C147.771 34.5625 143.729 36.75 140.688 41.125C137.688 45.4583 136.188 51.9375 136.188 60.5625C136.188 68.7292 137.604 74.9375 140.438 79.1875C143.312 83.3958 147.271 85.5 152.312 85.5C158.896 85.5 164.875 81.7083 170.25 74.125ZM170.25 85.25C165 91.5833 158.688 94.75 151.312 94.75C142.646 94.75 135.938 91.6667 131.188 85.5C126.438 79.3333 124.062 71.0208 124.062 60.5625C124.062 49.7292 126.708 41.1667 132 34.875C137.333 28.5417 144.021 25.375 152.062 25.375C159.229 25.375 165.292 27.5833 170.25 32V1.5625H182V93.1875H170.25V85.25Z" fill="#F8F8F8"/>
<path d="M110.812 93.1875H99V26.875H110.812V93.1875ZM110.812 14.3125H99V1.5625H110.812V14.3125Z" fill="#F8F8F8"/>
<path d="M81.5625 93.1875H69.75V1.5625H81.5625V93.1875Z" fill="#F8F8F8"/>
<path d="M29.4375 94.75C11.3125 94.75 1.83333 87.625 1 73.375H12.8125C12.8958 81.4583 18.3958 85.5 29.3125 85.5C34.1875 85.5 37.8958 84.5 40.4375 82.5C43.0208 80.4583 44.3125 77.9167 44.3125 74.875C44.3125 71.875 43.0625 69.7708 40.5625 68.5625C38.0625 67.3125 32.8958 65.7083 25.0625 63.75C17.2708 61.7917 11.5625 59.6042 7.9375 57.1875C4.35417 54.7708 2.5625 50.5208 2.5625 44.4375C2.5625 38.9375 4.79167 34.3958 9.25 30.8125C13.75 27.1875 19.75 25.375 27.25 25.375C44.625 25.375 53.5 31.5625 53.875 43.9375H42.125C41.7083 37.6875 37.0208 34.5625 28.0625 34.5625C24.1042 34.5625 20.8125 35.3125 18.1875 36.8125C15.6042 38.3125 14.3125 40.5 14.3125 43.375C14.3125 45.9583 15.3125 47.8333 17.3125 49C19.3125 50.125 24.3125 51.6667 32.3125 53.625C40.3542 55.5417 46.3125 57.7917 50.1875 60.375C54.1042 62.9583 56.0625 67.4167 56.0625 73.75C56.0625 79.7917 53.6458 84.8125 48.8125 88.8125C44.0208 92.7708 37.5625 94.75 29.4375 94.75Z" fill="#F8F8F8"/>
<circle cx="321" cy="110" r="20" fill="#E27272"/>
</svg>
