<svg width="157" height="43" viewBox="0 0 157 43" fill="none" xmlns="http://www.w3.org/2000/svg">
<rect x="1" y="36" width="155" height="3" rx="1.5" fill="#AEAEAE"/>
<circle cx="95.5" cy="37.5" r="5.5" fill="#E27272"/>
<path d="M9.639 33.35C8.379 33.35 7.18317 33.1517 6.0515 32.755C4.9315 32.3467 3.9865 31.7108 3.2165 30.8475C2.45817 29.9842 1.97984 28.87 1.7815 27.505H5.5265C5.68984 28.17 5.97567 28.7125 6.384 29.1325C6.804 29.5525 7.29984 29.8617 7.8715 30.06C8.44317 30.2467 9.0265 30.34 9.6215 30.34C10.7065 30.34 11.5815 30.1533 12.2465 29.78C12.9232 29.4067 13.2615 28.8292 13.2615 28.0475C13.2615 27.4758 13.0748 27.0208 12.7015 26.6825C12.3282 26.3442 11.7332 26.0875 10.9165 25.9125L7.469 25.125C5.94067 24.7867 4.70984 24.2267 3.7765 23.445C2.85484 22.6633 2.38817 21.5608 2.3765 20.1375C2.36484 19.0642 2.63317 18.1075 3.1815 17.2675C3.72984 16.4275 4.5465 15.7683 5.6315 15.29C6.7165 14.8 8.05817 14.555 9.6565 14.555C11.7682 14.555 13.4598 15.0275 14.7315 15.9725C16.0032 16.9058 16.6565 18.2417 16.6915 19.98H13.069C12.9407 19.1983 12.5732 18.5917 11.9665 18.16C11.3598 17.7167 10.5723 17.495 9.604 17.495C8.60067 17.495 7.77817 17.6875 7.1365 18.0725C6.49484 18.4575 6.174 19.0467 6.174 19.84C6.174 20.3883 6.419 20.82 6.909 21.135C7.399 21.45 8.134 21.7183 9.114 21.94L12.369 22.7275C13.3023 22.9608 14.0665 23.2758 14.6615 23.6725C15.2565 24.0692 15.7232 24.5067 16.0615 24.985C16.3998 25.4517 16.6332 25.9358 16.7615 26.4375C16.9015 26.9275 16.9715 27.3825 16.9715 27.8025C16.9715 28.9692 16.6682 29.9667 16.0615 30.795C15.4665 31.6117 14.6207 32.2417 13.524 32.685C12.4273 33.1283 11.1323 33.35 9.639 33.35ZM26.1959 33.2625C25.0293 33.2625 24.0959 33.1167 23.3959 32.825C22.6959 32.5333 22.1709 32.1425 21.8209 31.6525C21.4709 31.1625 21.2434 30.6142 21.1384 30.0075C21.0334 29.3892 20.9809 28.7592 20.9809 28.1175V6.995H25.1459V27.6275C25.1459 28.4092 25.3034 29.0158 25.6184 29.4475C25.9451 29.8792 26.4701 30.13 27.1934 30.2L28.1034 30.235V32.9125C27.7884 33.0058 27.4676 33.0875 27.1409 33.1575C26.8143 33.2275 26.4993 33.2625 26.1959 33.2625ZM36.2084 14.905V33H32.1134V14.905H36.2084ZM36.2609 7.7125V11.7375H32.0434V7.7125H36.2609ZM47.9845 33.35C45.5928 33.35 43.7145 32.5275 42.3495 30.8825C40.9845 29.2375 40.302 26.8983 40.302 23.865C40.302 21.975 40.5762 20.3358 41.1245 18.9475C41.6845 17.5475 42.5012 16.4683 43.5745 15.71C44.6595 14.94 46.0012 14.555 47.5995 14.555C48.3462 14.555 49.0228 14.6483 49.6295 14.835C50.2478 15.01 50.7962 15.2433 51.2745 15.535C51.7528 15.8267 52.1553 16.1475 52.482 16.4975C52.8203 16.8475 53.0828 17.1975 53.2695 17.5475V6.995H57.5395V33H54.3895L53.917 29.29C53.777 29.7217 53.567 30.1767 53.287 30.655C53.0187 31.1217 52.6512 31.5592 52.1845 31.9675C51.7295 32.3758 51.1578 32.7083 50.4695 32.965C49.7812 33.2217 48.9528 33.35 47.9845 33.35ZM48.8595 30.2175C50.3878 30.2175 51.502 29.7217 52.202 28.73C52.9137 27.7267 53.2695 26.07 53.2695 23.76C53.2578 22.4417 53.0945 21.3333 52.7795 20.435C52.4762 19.5367 52.0037 18.86 51.362 18.405C50.732 17.95 49.9153 17.7225 48.912 17.7225C47.6287 17.7225 46.5728 18.195 45.7445 19.14C44.9162 20.085 44.502 21.625 44.502 23.76C44.502 25.8833 44.8812 27.4933 45.6395 28.59C46.3978 29.675 47.4712 30.2175 48.8595 30.2175ZM65.715 24.9325C65.7034 25.9592 65.8667 26.8692 66.205 27.6625C66.5434 28.4558 67.045 29.08 67.71 29.535C68.375 29.9783 69.1975 30.2 70.1775 30.2C71.1809 30.2 72.05 29.9783 72.785 29.535C73.5317 29.08 74.0275 28.3917 74.2725 27.47H78.175C77.965 28.73 77.4634 29.7975 76.67 30.6725C75.8767 31.5475 74.9142 32.2125 73.7825 32.6675C72.6625 33.1225 71.4959 33.35 70.2825 33.35C68.5325 33.35 66.9925 32.9825 65.6625 32.2475C64.3442 31.5008 63.3117 30.4392 62.565 29.0625C61.83 27.6858 61.4625 26.0467 61.4625 24.145C61.4625 22.29 61.8009 20.645 62.4775 19.21C63.1542 17.7633 64.1284 16.6258 65.4 15.7975C66.6834 14.9692 68.2234 14.555 70.02 14.555C71.805 14.555 73.3042 14.9342 74.5175 15.6925C75.7425 16.4508 76.6642 17.5125 77.2825 18.8775C77.9125 20.2308 78.2275 21.8175 78.2275 23.6375V24.9325H65.715ZM65.715 22.29H74.2025C74.2025 21.415 74.0509 20.6275 73.7475 19.9275C73.4442 19.2158 72.9775 18.6558 72.3475 18.2475C71.7292 17.8275 70.9475 17.6175 70.0025 17.6175C69.0692 17.6175 68.2817 17.845 67.64 18.3C66.9984 18.755 66.5142 19.3442 66.1875 20.0675C65.8609 20.7792 65.7034 21.52 65.715 22.29ZM82.1967 33V14.905H86.2742V18.825C86.5659 17.9267 86.9801 17.1625 87.5167 16.5325C88.0651 15.8908 88.7067 15.4008 89.4417 15.0625C90.1767 14.7242 90.9759 14.555 91.8392 14.555C92.0492 14.555 92.2534 14.5667 92.4517 14.59C92.6501 14.6133 92.7959 14.6542 92.8892 14.7125V18.79C92.7609 18.7317 92.5917 18.6908 92.3817 18.6675C92.1834 18.6442 92.0084 18.6325 91.8567 18.6325C90.9817 18.5625 90.2059 18.5975 89.5292 18.7375C88.8642 18.8775 88.2984 19.1167 87.8317 19.455C87.3767 19.7817 87.0326 20.2017 86.7992 20.715C86.5659 21.2167 86.4492 21.8058 86.4492 22.4825V33H82.1967ZM114.524 14.905V17.915H110.447V33H106.194V17.915H102.624V14.905H106.194V12.21C106.194 10.7633 106.591 9.64917 107.384 8.8675C108.189 8.08583 109.35 7.695 110.867 7.695H114.682L114.699 10.6H112.179C111.491 10.6 111.018 10.7808 110.762 11.1425C110.505 11.4925 110.377 12.0467 110.377 12.805V14.905H114.524ZM124.633 33.35C123.746 33.35 122.889 33.2217 122.06 32.965C121.244 32.6967 120.509 32.3117 119.855 31.81C119.202 31.2967 118.683 30.6667 118.298 29.92C117.913 29.1733 117.72 28.3042 117.72 27.3125V14.905H121.99V26.8225C121.99 27.8025 122.3 28.6075 122.918 29.2375C123.548 29.8675 124.493 30.1825 125.753 30.1825C126.896 30.1825 127.812 29.885 128.5 29.29C129.189 28.6833 129.533 27.8142 129.533 26.6825V14.905H133.768V33H130.495L130.023 29.465C129.801 30.4567 129.41 31.2383 128.85 31.81C128.302 32.37 127.655 32.7667 126.908 33C126.173 33.2333 125.415 33.35 124.633 33.35ZM138.491 33V14.905H142.656V17.495C142.936 17.0283 143.315 16.5792 143.793 16.1475C144.283 15.7158 144.884 15.3658 145.596 15.0975C146.307 14.8292 147.142 14.695 148.098 14.695C149.218 14.695 150.257 14.9167 151.213 15.36C152.182 15.8033 152.957 16.4975 153.541 17.4425C154.136 18.3875 154.433 19.6067 154.433 21.1V33H150.163V21.6075C150.163 20.4175 149.837 19.5367 149.183 18.965C148.53 18.3817 147.707 18.09 146.716 18.09C146.039 18.09 145.397 18.2067 144.791 18.44C144.184 18.6617 143.688 19.0058 143.303 19.4725C142.93 19.9275 142.743 20.4992 142.743 21.1875V33H138.491Z" fill="black"/>
</svg>
